<?xml version="1.0" encoding="UTF-8" standalone="no"?>
<svg
   xmlns:dc="http://purl.org/dc/elements/1.1/"
   xmlns:cc="http://creativecommons.org/ns#"
   xmlns:rdf="http://www.w3.org/1999/02/22-rdf-syntax-ns#"
   xmlns:svg="http://www.w3.org/2000/svg"
   xmlns="http://www.w3.org/2000/svg"
   xmlns:sodipodi="http://sodipodi.sourceforge.net/DTD/sodipodi-0.dtd"
   xmlns:inkscape="http://www.inkscape.org/namespaces/inkscape"
   width="24"
   height="24"
   viewBox="-4 -4 36 36"
   version="1.1"
   id="svg4"
   sodipodi:docname="eject.svg"
   inkscape:version="1.0.2 (e86c870879, 2021-01-15)">
  <metadata
     id="metadata10">
    <rdf:RDF>
      <cc:Work
         rdf:about="">
        <dc:format>image/svg+xml</dc:format>
        <dc:type
           rdf:resource="http://purl.org/dc/dcmitype/StillImage" />
        <dc:title></dc:title>
      </cc:Work>
    </rdf:RDF>
  </metadata>
  <defs
     id="defs8" />
  <sodipodi:namedview
     pagecolor="#ffffff"
     bordercolor="#666666"
     borderopacity="1"
     objecttolerance="10"
     gridtolerance="10"
     guidetolerance="10"
     inkscape:pageopacity="0"
     inkscape:pageshadow="2"
     inkscape:window-width="1344"
     inkscape:window-height="721"
     id="namedview6"
     showgrid="false"
     inkscape:zoom="34.4375"
     inkscape:cx="8"
     inkscape:cy="8"
     inkscape:window-x="0"
     inkscape:window-y="0"
     inkscape:window-maximized="1"
     inkscape:current-layer="svg4" />
  <g
     id="g3039"
     transform="matrix(0.01169682,0,0,0.01399689,5.0051466,5)">
    <path
       d="m 14,557 710,710 q 19,19 45,19 26,0 45,-19 l 710,-710 q 19,-19 13,-32 -6,-13 -32,-13 H 33 q -26,0 -32,13 -6,13 13,32 z M 1473,0 H 65 Q 39,0 20,19 1,38 1,64 v 256 q 0,26 19,45 19,19 45,19 h 1408 q 26,0 45,-19 19,-19 19,-45 V 64 q 0,-26 -19,-45 -19,-19 -45,-19 z"
       id="path3041"
       style="fill:currentColor" />
  </g>
</svg>
