<?xml version="1.0" encoding="UTF-8" standalone="no"?>
<svg
   xmlns:dc="http://purl.org/dc/elements/1.1/"
   xmlns:cc="http://creativecommons.org/ns#"
   xmlns:rdf="http://www.w3.org/1999/02/22-rdf-syntax-ns#"
   xmlns:svg="http://www.w3.org/2000/svg"
   xmlns="http://www.w3.org/2000/svg"
   viewBox="0 0 15.999997 16"
   id="svg3037"
   version="1.1"
   width="15.999997"
   height="16">
  <metadata
     id="metadata3047">
    <rdf:RDF>
      <cc:Work
         rdf:about="">
        <dc:format>image/svg+xml</dc:format>
        <dc:type
           rdf:resource="http://purl.org/dc/dcmitype/StillImage" />
        <dc:title></dc:title>
      </cc:Work>
    </rdf:RDF>
  </metadata>
  <defs
     id="defs3045" />
  <g
     id="g3039"
     transform="matrix(0.01039717,0,0,0.01244168,0.00457475,0)"
     style="fill:#808080">
    <path
       d="m 14,557 710,710 q 19,19 45,19 26,0 45,-19 l 710,-710 q 19,-19 13,-32 -6,-13 -32,-13 H 33 q -26,0 -32,13 -6,13 13,32 z M 1473,0 H 65 Q 39,0 20,19 1,38 1,64 v 256 q 0,26 19,45 19,19 45,19 h 1408 q 26,0 45,-19 19,-19 19,-45 V 64 q 0,-26 -19,-45 -19,-19 -45,-19 z"
       id="path3041"
       style="fill:#808080" />
  </g>
</svg>
