<?xml version="1.0" encoding="UTF-8" standalone="no"?>
<svg xmlns="http://www.w3.org/2000/svg" width="16" viewBox="0 0 23 16">
   <g class="jp-icon3" fill="#616161" id="g4" transform="matrix(1.15,0,0,1.15,-2.3,-5.343478)">
      <path d="M 12,2 C 6.47,2 2,6.47 2,12 2,17.53 6.47,22 12,22 17.53,22 22,17.53 22,12 22,6.47 17.53,2 12,2 Z m 0,18 C 7.59,20 4,16.41 4,12 4,7.59 7.59,4 12,4 c 4.41,0 8,3.59 8,8 0,4.41 -3.59,8 -8,8 z" id="path2" />
   </g>
   <text xml:space="preserve" style="font-size:30.6666px;line-height:1.25;font-family:sans-serif;stroke-width:1.4375" x="32.893692" y="-25.324512" id="text843">
      <tspan id="tspan841" x="32.893692" y="-25.324512" style="stroke-width:1.4375" />
   </text>
</svg>