<?xml version="1.0" encoding="UTF-8" standalone="no"?>
<svg
   width="16"
   viewBox="0 0 15.999999 16"
   version="1.1"
   id="svg6"
   sodipodi:docname="stop_status.svg"
   height="16"
   inkscape:version="1.1.1 (3bf5ae0d25, 2021-09-20)"
   xmlns:inkscape="http://www.inkscape.org/namespaces/inkscape"
   xmlns:sodipodi="http://sodipodi.sourceforge.net/DTD/sodipodi-0.dtd"
   xmlns="http://www.w3.org/2000/svg"
   xmlns:svg="http://www.w3.org/2000/svg">
  <defs
     id="defs10" />
  <sodipodi:namedview
     id="namedview8"
     pagecolor="#ffffff"
     bordercolor="#666666"
     borderopacity="1.0"
     inkscape:pageshadow="2"
     inkscape:pageopacity="0.0"
     inkscape:pagecheckerboard="0"
     showgrid="false"
     inkscape:zoom="2.59375"
     inkscape:cx="-3.0843374"
     inkscape:cy="-5.2048193"
     inkscape:window-width="1568"
     inkscape:window-height="844"
     inkscape:window-x="0"
     inkscape:window-y="0"
     inkscape:window-maximized="1"
     inkscape:current-layer="svg6"
     scale-x="1" />
  <g
     class="jp-icon3"
     fill="#616161"
     id="g4"
     transform="matrix(0.8,0,0,0.8,-1.6,-1.6)">
    <path
       d="M 12,2 C 6.47,2 2,6.47 2,12 2,17.53 6.47,22 12,22 17.53,22 22,17.53 22,12 22,6.47 17.53,2 12,2 Z m 0,18 C 7.59,20 4,16.41 4,12 4,7.59 7.59,4 12,4 c 4.41,0 8,3.59 8,8 0,4.41 -3.59,8 -8,8 z"
       id="path2" />
  </g>
  <text
     xml:space="preserve"
     style="font-size:30.6666px;line-height:1.25;font-family:sans-serif;stroke-width:1.4375"
     x="32.893692"
     y="-22.281034"
     id="text843">       <tspan
   id="tspan841"
   x="32.893692"
   y="-22.281034"
   style="stroke-width:1.4375" />   </text>
</svg>
